<svg width="82" height="81" viewBox="0 0 82 81" xmlns="http://www.w3.org/2000/svg"><g id="Symbols"><g id="Regular-S"><path id="path14" fill="#4A86E8" stroke="none" d="M 40.82019 80.199219 C 62.353394 80.199219 80.273438 62.328125 80.273438 40.794922 C 80.273438 19.261719 62.304565 1.390625 40.771362 1.390625 C 19.286987 1.390625 1.415894 19.261719 1.415894 40.794922 C 1.415894 62.328125 19.335938 80.199219 40.82019 80.199219 Z"/><path id="path15" fill="#FFF" stroke="none" d="M 32.22644 24.4375 C 32.22644 19.701172 36.035156 15.84375 40.82019 15.84375 C 45.654175 15.84375 49.462769 19.701172 49.462769 24.4375 C 49.462769 28.294922 46.874878 31.664063 43.359253 32.787109 L 43.359253 44.212891 C 43.359253 51.341797 42.13855 55.345703 40.82019 55.345703 C 39.550659 55.345703 38.329956 51.292969 38.329956 44.212891 L 38.329956 32.787109 C 34.814453 31.664063 32.22644 28.294922 32.22644 24.4375 Z M 38.47644 24.974609 C 40.03894 24.974609 41.3573 23.705078 41.3573 22.09375 C 41.3573 20.53125 40.03894 19.261719 38.47644 19.261719 C 37.011597 19.261719 35.644531 20.53125 35.644531 22.09375 C 35.644531 23.705078 37.011597 24.974609 38.47644 24.974609 Z M 40.82019 63.353516 C 27.734253 63.353516 20.458862 58.617188 20.458862 53.880859 C 20.458862 47.679688 29.88269 44.164063 35.595581 44.212891 L 35.595581 48.167969 C 31.933472 48.167969 25.829956 50.267578 25.829956 53.246094 C 25.829956 56.566406 31.9823 59.007813 40.82019 59.007813 C 49.658081 59.007813 55.859253 56.566406 55.859253 53.246094 C 55.859253 50.267578 49.755859 48.167969 46.0448 48.167969 L 46.0448 44.212891 C 51.806641 44.164063 61.230347 47.679688 61.230347 53.880859 C 61.230347 58.617188 53.954956 63.353516 40.82019 63.353516 Z"/></g></g></svg>