<svg version="1.1" xmlns="http://www.w3.org/2000/svg" width="1024" height="1024" viewBox="0 0 1024 1024">
<g id="icomoon-ignore">
</g>
<path fill="#646eff" d="M511.998 1024c9.244 0 21.696-4.019 34.147-10.444 292.054-158.282 384.855-229.786 384.855-409.361v-390.879c0-54.233-21.292-71.909-67.090-90.79-68.695-27.317-241.839-91.594-310.533-114.894-13.657-4.419-27.319-7.632-41.38-7.632-14.058 0-27.717 3.615-41.375 7.632-68.695 23.3-241.839 87.979-310.535 114.894-45.797 18.078-67.088 36.557-67.088 90.79v390.879c0 179.574 97.619 243.044 384.854 409.361 12.052 6.829 24.908 10.444 34.144 10.444z"></path>
<path fill="#1f2833" d="M278.195 529.475c0-6.027 2.812-12.855 8.437-19.684l295.669-371.597c20.889-25.309 54.638-8.034 42.585 23.3l-98.424 263.934h183.186c12.855 0 22.498 8.841 22.498 21.292 0 6.027-2.81 12.855-8.438 19.684l-296.070 371.596c-20.488 25.308-54.233 8.438-42.181-23.3l98.423-263.934h-183.588c-12.454 0-22.095-8.841-22.095-21.292z"></path>
</svg>
